# xmcd CD database file
#
# Track frame offsets:
#	182
#	19937
#	34302
#	46637
#	64777
#	79867
#	93285
#	107527
#	126205
#	144202
#	156277
#	171210
#	184082
#	201352
#	216487
#	231947
#	252797
#	270835
#	285102
#	304625
#	321700
#	333995
#
# Disc length: 4656 seconds
#
# Revision: 0
# Processed by: cddbd v1.5.1PL0 Copyright (c) Steve Scherf et al.
# Submitted via: CDex 1.51
#
DISCID=33122e16
DTITLE=Diverse Interpreten - Country Line Dancing
DYEAR=1995
DGENRE=Country
TTITLE0=The Boys And Me
TTITLE1=Girls With Guitars
TTITLE2=Talk Dirty To Me
TTITLE3=Don´t Step Out Of Line
TTITLE4=That´s What I Get For Losing You
TTITLE5=Cowboy Reggae
TTITLE6=Swap Thing
TTITLE7=Back On The Streets
TTITLE8=Soft Touch
TTITLE9=XXX´s and OOO´s
TTITLE10=Cotton Eye Joe
TTITLE11=Whip Crackaway
TTITLE12=Line King
TTITLE13=Nobody Wins
TTITLE14=Angel Of The Night
TTITLE15=Any Man Of Mine
TTITLE16=Fast Fingers Freddie
TTITLE17=Meet Me On The Corner
TTITLE18=Wrong Train
TTITLE19=Time Wont Lt Me Slow Down
TTITLE20=When You Walk In The Room
TTITLE21=Duelling Banjos
EXTD=YEAR: 1995
EXTT0=
EXTT1=
EXTT2=
EXTT3=
EXTT4=
EXTT5=
EXTT6=
EXTT7=
EXTT8=
EXTT9=
EXTT10=
EXTT11=
EXTT12=
EXTT13=
EXTT14=
EXTT15=
EXTT16=
EXTT17=
EXTT18=
EXTT19=
EXTT20=
EXTT21=
PLAYORDER=
